<svg width="960" height="280" viewBox="0 0 960 280" fill="none" xmlns="http://www.w3.org/2000/svg" role="img" aria-labelledby="title desc">
  <title id="title">jprompt logo</title>
  <desc id="desc">A transparent background wordmark for jprompt with prompt template placeholders.</desc>
  <defs>
    <linearGradient id="frame" x1="62" y1="44" x2="300" y2="236" gradientUnits="userSpaceOnUse">
      <stop offset="0" stop-color="#14B8A6"/>
      <stop offset="0.54" stop-color="#2563EB"/>
      <stop offset="1" stop-color="#F97316"/>
    </linearGradient>
    <linearGradient id="word" x1="354" y1="74" x2="782" y2="188" gradientUnits="userSpaceOnUse">
      <stop offset="0" stop-color="#0F172A"/>
      <stop offset="0.62" stop-color="#1D4ED8"/>
      <stop offset="1" stop-color="#0F766E"/>
    </linearGradient>
  </defs>
  <path d="M78 70C78 49.01 95.01 32 116 32H282C302.99 32 320 49.01 320 70V210C320 230.99 302.99 248 282 248H116C95.01 248 78 230.99 78 210V70Z" fill="#FFFFFF" fill-opacity="0.92"/>
  <path d="M116 32H282C302.99 32 320 49.01 320 70V210C320 230.99 302.99 248 282 248H116C95.01 248 78 230.99 78 210V70C78 49.01 95.01 32 116 32Z" stroke="url(#frame)" stroke-width="14"/>
  <path d="M104 82H294" stroke="#E2E8F0" stroke-width="12" stroke-linecap="round"/>
  <circle cx="125" cy="82" r="6" fill="#14B8A6"/>
  <circle cx="149" cy="82" r="6" fill="#2563EB"/>
  <circle cx="173" cy="82" r="6" fill="#F97316"/>
  <text x="109" y="142" fill="#0F766E" font-family="ui-monospace, SFMono-Regular, Menlo, Consolas, monospace" font-size="38" font-weight="800">{{</text>
  <text x="161" y="142" fill="#0F172A" font-family="ui-monospace, SFMono-Regular, Menlo, Consolas, monospace" font-size="30" font-weight="700">prompt</text>
  <text x="267" y="142" fill="#1D4ED8" font-family="ui-monospace, SFMono-Regular, Menlo, Consolas, monospace" font-size="38" font-weight="800">}}</text>
  <path d="M118 178H225" stroke="#0F172A" stroke-width="12" stroke-linecap="round"/>
  <path d="M118 207H267" stroke="#64748B" stroke-width="12" stroke-linecap="round"/>
  <path d="M279 170L289.2 192.8L312 203L289.2 213.2L279 236L268.8 213.2L246 203L268.8 192.8L279 170Z" fill="#F97316"/>
  <text x="356" y="133" fill="url(#word)" font-family="Inter, ui-sans-serif, system-ui, -apple-system, BlinkMacSystemFont, Segoe UI, sans-serif" font-size="92" font-weight="850">jprompt</text>
  <text x="362" y="184" fill="#334155" font-family="ui-monospace, SFMono-Regular, Menlo, Consolas, monospace" font-size="27" font-weight="650" textLength="382" lengthAdjust="spacingAndGlyphs">{{data}} -&gt; prompt text</text>
  <path d="M362 210H704" stroke="#CBD5E1" stroke-width="10" stroke-linecap="round"/>
  <path d="M362 210H558" stroke="#14B8A6" stroke-width="10" stroke-linecap="round"/>
  <path d="M738 188C755 188 768 201 768 218C768 201 781 188 798 188C781 188 768 175 768 158C768 175 755 188 738 188Z" fill="#F97316"/>
</svg>
